HIERARCHY
ROOT root
{
	OFFSET 0.000000 0.000000 0.000000
	CHANNELS 6 Xposition Yposition Zposition Zrotation Yrotation Xrotation
	JOINT lhip
	{
		OFFSET 0.058581 -0.082280 -0.017664
		CHANNELS 3 Zrotation Yrotation Xrotation
		JOINT lknee
		{
			OFFSET 0.043451 -0.386469 0.008037
			CHANNELS 3 Zrotation Yrotation Xrotation
			JOINT lankle
			{
				OFFSET -0.014790 -0.426874 -0.037428
				CHANNELS 3 Zrotation Yrotation Xrotation
				JOINT ltoe
				{
					OFFSET 0.041054 -0.060286 0.122042
					CHANNELS 3 Zrotation Yrotation Xrotation
					End Site
					{
						OFFSET 0.000000 0.000000 0.000000
					}
				}
			}
		}
	}
	JOINT rhip
	{
		OFFSET -0.060310 -0.090513 -0.013543
		CHANNELS 3 Zrotation Yrotation Xrotation
		JOINT rknee
		{
			OFFSET -0.043257 -0.383688 -0.004843
			CHANNELS 3 Zrotation Yrotation Xrotation
			JOINT rankle
			{
				OFFSET 0.019056 -0.420046 -0.034562
				CHANNELS 3 Zrotation Yrotation Xrotation
				JOINT rtoe
				{
					OFFSET -0.034840 -0.062106 0.130323
					CHANNELS 3 Zrotation Yrotation Xrotation
					End Site
					{
						OFFSET 0.000000 0.000000 0.000000
					}
				}
			}
		}
	}
	JOINT lowerback
	{
		OFFSET 0.004439 0.124404 -0.038385
		CHANNELS 3 Zrotation Yrotation Xrotation
		JOINT upperback
		{
			OFFSET 0.004488 0.137956 0.026820
			CHANNELS 3 Zrotation Yrotation Xrotation
			JOINT chest
			{
				OFFSET -0.002265 0.056032 0.002855
				CHANNELS 3 Zrotation Yrotation Xrotation
				JOINT lowerneck
				{
					OFFSET -0.013390 0.211636 -0.033468
					CHANNELS 3 Zrotation Yrotation Xrotation
					JOINT upperneck
					{
						OFFSET 0.010113 0.088937 0.050410
						CHANNELS 3 Zrotation Yrotation Xrotation
						End Site
						{
							OFFSET 0.000000 0.000000 0.000000
						}
					}
				}
				JOINT lclavicle
				{
					OFFSET 0.071702 0.114000 -0.018898
					CHANNELS 3 Zrotation Yrotation Xrotation
					JOINT lshoulder
					{
						OFFSET 0.122921 0.045205 -0.019046
						CHANNELS 3 Zrotation Yrotation Xrotation
						JOINT lelbow
						{
							OFFSET 0.255332 -0.015649 -0.022946
							CHANNELS 3 Zrotation Yrotation Xrotation
							JOINT lwrist
							{
								OFFSET 0.265709 0.012698 -0.007375
								CHANNELS 3 Zrotation Yrotation Xrotation
								End Site
								{
									OFFSET 0.000000 0.000000 0.000000
								}
							}
						}
					}
				}
				JOINT rclavicle
				{
					OFFSET -0.082954 0.112472 -0.023707
					CHANNELS 3 Zrotation Yrotation Xrotation
					JOINT rshoulder
					{
						OFFSET -0.113228 0.046853 -0.008472
						CHANNELS 3 Zrotation Yrotation Xrotation
						JOINT relbow
						{
							OFFSET -0.260127 -0.014369 -0.031269
							CHANNELS 3 Zrotation Yrotation Xrotation
							JOINT rwrist
							{
								OFFSET -0.269108 0.006794 -0.006027
								CHANNELS 3 Zrotation Yrotation Xrotation
								End Site
								{
									OFFSET 0.000000 0.000000 0.000000
								}
							}
						}
					}
				}
			}
		}
	}
}
MOTION
Frames: 11
Frame Time: 0.033333
-0.291083 -0.374257 0.972895 78.130446 -1.227876 87.462477 1.261604 -3.040268 -18.533011 -2.880908 1.168745 8.756903 3.362058 12.549099 -0.979367 0.000000 -0.000000 0.000000 -1.623133 -0.979826 4.459914 2.834603 3.937881 33.620630 5.306305 -3.169205 -18.369064 0.000000 -0.000000 0.000000 -2.037142 5.266468 13.733922 1.011065 -1.154453 -0.004737 -0.086457 0.053748 3.376868 5.040327 6.765079 -7.361426 -1.851733 -1.288633 10.914876 -30.035162 7.949260 -1.537525 -55.979116 -2.944478 7.633476 11.361826 -22.595912 1.818288 -5.944406 -0.987832 -0.775752 31.228608 -3.617586 -0.754517 54.494717 6.890254 12.580515 -16.999914 24.026271 -13.391464 15.143534 5.743489 -7.334505 
-0.268216 -0.371371 0.978946 78.052006 -0.850189 88.338383 0.975184 -3.215878 -17.693984 -2.663234 0.741254 8.170229 4.350155 12.331114 -1.511621 0.000000 -0.000000 0.000000 -1.713318 -0.999332 5.207286 2.472045 4.649058 32.304680 6.715782 -2.675769 -14.914329 0.000000 -0.000000 0.000000 -2.244591 5.492045 12.408748 0.820830 -0.913269 0.272571 -0.179043 0.351759 3.383819 4.764317 6.202637 -7.689996 -1.638754 -0.998021 10.436219 -29.684320 7.953387 -1.547286 -56.010535 -3.111374 7.631827 11.566584 -23.051920 1.662275 -5.816298 -1.042471 -1.352924 30.970359 -3.850499 -0.560738 55.220486 6.397981 13.005119 -17.044031 24.590517 -13.072940 15.251967 5.772532 -7.597715 
-0.244615 -0.368438 0.985846 77.754044 -0.339015 89.251379 1.111380 -3.423046 -16.288030 -2.744534 0.479904 6.711768 4.863824 12.420412 -2.196633 0.000000 -0.000000 0.000000 -1.871932 -0.748721 5.448032 2.691789 5.565814 31.558581 7.991498 -2.141806 -10.140835 0.000000 -0.000000 0.000000 -2.454349 5.604270 11.122288 0.609554 -0.451913 0.365465 -0.286071 0.797378 2.835179 4.740477 5.619145 -7.229806 -1.157080 -1.030677 10.296031 -29.197022 8.088508 -1.095949 -55.890040 -3.319549 7.603071 11.707894 -23.791164 1.358488 -5.988362 -1.372426 -1.779941 30.260338 -3.451587 0.197793 56.250300 5.300823 13.721704 -17.380038 24.842578 -12.492603 15.621800 5.857887 -7.476634 
-0.216083 -0.365185 0.994023 77.824824 0.549431 90.333193 1.645254 -3.140633 -14.512600 -3.054712 -0.123912 4.817922 4.447312 12.082578 -3.563040 0.000000 -0.000000 0.000000 -1.936897 -0.746795 4.527426 3.224398 5.946267 32.357013 9.445131 -1.339144 -3.397487 0.000000 -0.000000 0.000000 -2.610048 5.181516 9.549985 0.608301 -0.128375 0.294168 -0.300813 0.892161 2.606308 4.263818 5.384223 -7.142361 -0.852404 -0.348134 10.173597 -29.135453 8.530018 -1.462565 -55.365950 -3.633513 7.360747 12.074817 -24.624382 0.490824 -5.760778 -1.596320 -2.435892 30.126193 -4.266025 0.316818 56.472186 5.263075 14.309600 -16.729162 25.712493 -10.951608 15.608669 5.715098 -6.726329 
-0.200819 -0.363244 0.997721 77.953152 0.936729 90.938151 1.830856 -3.033749 -13.715493 -3.255732 -0.738773 4.151260 4.401554 11.957548 -4.122238 0.000000 -0.000000 0.000000 -2.054860 -0.841188 3.078675 3.642264 5.908233 34.529684 9.222100 -1.156230 -1.421803 0.000000 -0.000000 0.000000 -2.855135 4.875654 9.141889 0.612234 -0.009486 -0.114871 -0.329176 0.813778 2.468035 4.148894 5.522220 -7.412469 -0.729489 -0.151089 10.077089 -28.898805 8.757135 -1.561493 -54.975235 -3.884674 7.215086 12.169066 -25.592460 0.309072 -5.567117 -1.690373 -2.657136 29.999800 -4.550625 0.142688 56.703389 5.138809 14.563160 -16.647158 26.311392 -10.481617 15.549462 5.547966 -6.712683 
-0.182088 -0.361359 1.000657 78.481619 1.460300 90.986958 2.112062 -3.019777 -12.324363 -3.554942 -1.103568 3.720388 4.185651 11.692500 -5.455018 0.000000 -0.000000 0.000000 -1.783874 -0.301950 1.037528 4.106072 4.554538 39.464017 7.845159 -2.284604 -1.771179 0.000000 -0.000000 0.000000 -3.261154 4.086180 9.026364 0.792988 -0.038029 -0.003524 -0.393493 0.591720 2.387229 4.240582 6.338333 -7.767457 -1.025132 0.272229 10.064438 -28.436562 8.144570 -1.057796 -54.595433 -4.424560 7.052908 13.177004 -27.033448 -0.607224 -5.385211 -2.013347 -3.656386 29.903649 -3.752762 0.350630 56.814141 5.443280 14.763378 -17.095469 26.807274 -10.842414 15.469620 5.947086 -7.295263 
-0.162330 -0.359488 1.002840 79.145605 1.828130 90.641666 2.034085 -2.687707 -10.319136 -3.623612 -2.218945 2.961327 4.092649 11.610551 -6.376297 0.000000 -0.000000 0.000000 -1.656788 0.405986 -0.715710 4.788014 3.079798 44.392724 7.381556 -2.232582 -4.535369 0.000000 -0.000000 0.000000 -3.537993 3.128120 9.496114 0.870098 -0.179992 -0.043373 -0.581537 0.343304 2.358163 4.373556 7.296400 -8.022730 -1.375572 0.222356 9.940153 -28.277795 7.288482 -0.947195 -53.531825 -4.700122 7.084758 13.671790 -28.331555 -0.998201 -4.580743 -2.527431 -3.761761 30.308635 -3.094594 0.143524 56.411339 5.772592 14.599855 -17.182518 27.121497 -10.853098 14.913810 6.195272 -7.095626 
-0.144373 -0.357187 1.004998 80.186087 2.222464 90.323243 1.985336 -2.421344 -8.750885 -3.627822 -3.306928 2.713626 4.056785 11.424640 -7.227696 0.000000 -0.000000 0.000000 -1.477358 0.573279 -3.026823 5.384098 1.635442 49.008045 7.675232 -2.359268 -6.025500 0.000000 -0.000000 0.000000 -3.628142 2.150228 10.232978 0.977002 -0.396649 -0.463687 -0.750977 -0.040032 2.355404 4.467386 7.846152 -8.075241 -1.708950 0.255390 10.378364 -28.084399 6.892006 -1.170048 -52.509919 -5.362188 7.069250 13.865715 -29.807065 -1.137905 -4.105350 -2.524446 -3.560917 30.527071 -2.762471 -0.555845 56.131557 5.850384 14.631567 -17.064924 26.957171 -10.677014 14.495470 6.072995 -6.491469 
-0.127123 -0.355428 1.007103 81.331183 2.611655 90.016835 1.996272 -1.893557 -7.293638 -3.721442 -4.497572 2.540111 4.174645 11.161964 -8.184103 0.000000 -0.000000 0.000000 -1.168220 0.611652 -5.609200 5.381402 -0.049308 52.721977 7.454694 -3.410104 -7.494298 0.000000 -0.000000 0.000000 -3.877672 1.312735 10.756705 1.243440 -0.367087 -0.862158 -0.709234 -0.326142 2.251070 4.602806 8.209677 -7.488912 -1.699775 0.243662 10.920356 -27.809159 6.271673 -1.191488 -51.845818 -6.082758 7.125823 14.363389 -31.213165 -1.451223 -3.296518 -2.760619 -3.405913 30.705592 -2.689069 -0.648166 55.663624 5.745473 14.436085 -17.421530 27.216089 -10.866976 13.839453 5.817115 -6.242032 
-0.105809 -0.353579 1.008898 83.214480 2.956908 89.479820 1.969316 -1.741563 -5.466323 -3.861353 -5.822922 2.559845 4.101943 10.755635 -9.420241 0.000000 -0.000000 0.000000 -1.034211 0.253075 -8.484094 4.634358 -2.343130 55.264449 7.452439 -4.452688 -8.286597 0.000000 -0.000000 0.000000 -3.951961 0.508622 11.142736 1.468323 -0.648639 -0.830765 -0.566000 -0.843564 2.351810 4.528397 8.155221 -6.959016 -1.822458 0.047643 11.064747 -27.443600 5.463447 -0.927939 -51.440510 -7.398257 6.880291 15.427730 -33.114420 -2.470938 -2.534479 -2.682201 -3.447783 30.595648 -2.488158 -0.746582 55.339848 5.371615 14.096905 -18.215466 28.084350 -11.401374 12.609163 5.836610 -5.908370 
-0.088616 -0.352718 1.009419 84.586844 3.149846 89.098542 1.879137 -1.528152 -3.910430 -3.875317 -6.971510 2.290960 4.219643 10.720756 -10.198281 0.000000 -0.000000 0.000000 -0.984080 0.397196 -10.866765 4.560549 -3.755004 56.136261 7.914594 -5.005590 -9.864109 0.000000 -0.000000 0.000000 -4.080170 -0.064457 11.101358 1.660699 -0.682638 -0.719200 -0.491899 -1.056548 2.408616 4.750489 8.425501 -5.933093 -1.855489 -0.156942 11.336363 -27.091537 4.953689 -0.869724 -51.233531 -8.549284 6.825988 16.341090 -34.547884 -3.970572 -1.234790 -2.330214 -3.551587 30.567124 -2.448095 -0.521062 55.265647 4.797101 13.940491 -19.421309 28.876953 -12.303909 11.351543 5.645552 -5.777482 
